<svg xmlns="http://www.w3.org/2000/svg" version="1.1" xmlns:xlink="http://www.w3.org/1999/xlink" xmlns:svgjs="http://svgjs.dev/svgjs" width="1000" height="1000" viewBox="0 0 1000 1000"><rect width="1000" height="1000" fill="#6936f5"></rect><g transform="matrix(0.7,0,0,0.7,149.57575757575756,282.13185546558714)"><svg viewBox="0 0 396 247" data-background-color="#6936f5" preserveAspectRatio="xMidYMid meet" height="623" width="1000" xmlns="http://www.w3.org/2000/svg" xmlns:xlink="http://www.w3.org/1999/xlink"><g id="tight-bounds" transform="matrix(1,0,0,1,0.2400000000000091,-0.09999999999999432)"><svg viewBox="0 0 395.52 247.2" height="247.2" width="395.52"><g><svg></svg></g><g><svg viewBox="0 0 395.52 247.2" height="247.2" width="395.52"><g><g><path d="M70.756 247.203l59.663-76.483 58.428 0-2.456 3.085-24.682 30.707h155.281v42.691zM207.704 71.645l23.775-28.957h-148.544v-42.691h241.829l-60.89 76.483-59.942 0z" fill="#ffffff" fill-rule="nonzero" stroke="none" stroke-width="1" stroke-linecap="butt" stroke-linejoin="miter" stroke-miterlimit="10" stroke-dasharray="" stroke-dashoffset="0" font-family="none" font-weight="none" font-size="none" text-anchor="none" style="mix-blend-mode: normal" data-fill-palette-color="tertiary"></path></g></g><g transform="matrix(1,0,0,1,0,87.12528227137669)"><svg viewBox="0 0 395.52 72.94943545724661" height="72.94943545724661" width="395.52"><g><svg viewBox="0 0 395.52 72.94943545724661" height="72.94943545724661" width="395.52"><g><svg viewBox="0 0 395.52 72.94943545724661" height="72.94943545724661" width="395.52"><g><svg viewBox="0 0 395.52 72.94943545724661" height="72.94943545724661" width="395.52"><g><svg viewBox="0 0 395.52 72.94943545724661" height="72.94943545724661" width="395.52"><g><svg viewBox="0 0 395.52 72.94943545724661" height="72.94943545724661" width="395.52"><g transform="matrix(1,0,0,1,0,0)"><svg width="395.52" viewBox="1.83 -40.41 221.83999999999997 40.919999999999995" height="72.94943545724661" data-palette-color="#ffffff"><path d="M1.83 0L22.97-27.1 26.64-31.57 3.71-31.57 3.71-38.16 41.04-38.16 19.68-11.33 15.87-6.59 39.84-6.59 39.84 0 1.83 0ZM55.93 0L42.28-28.83 50.66-28.83 58.15-11.5 60.35-6.64 63.03-12.94 55.91-28.83 62.94-28.83 66.43-20.29 69.92-28.83 76.95-28.83 69.8-12.94 72.51-6.64 74.7-11.5 82.2-28.83 90.57-28.83 76.93 0 69.06 0 66.43-5.57 63.79 0 55.93 0ZM99.43-32.74L99.43-32.74Q98.36-32.74 97.49-33.04 96.63-33.35 96.02-33.87 95.41-34.4 95.08-35.1 94.75-35.79 94.75-36.57L94.75-36.57Q94.75-37.38 95.08-38.07 95.41-38.77 96.02-39.28 96.63-39.79 97.49-40.1 98.36-40.41 99.43-40.41L99.43-40.41Q100.53-40.41 101.4-40.1 102.27-39.79 102.88-39.28 103.49-38.77 103.82-38.07 104.15-37.38 104.15-36.57L104.15-36.57Q104.15-35.79 103.82-35.1 103.49-34.4 102.88-33.87 102.27-33.35 101.4-33.04 100.53-32.74 99.43-32.74ZM95.82 0L95.82-28.81 103.05-28.81 103.05 0 95.82 0ZM116.64 0L116.64-23.39 109.68-23.39 109.68-28.81 116.64-28.81 116.64-37.77 123.87-37.77 123.87-28.81 130.83-28.81 130.83-23.39 123.87-23.39 123.87 0 116.64 0ZM141.59 0L141.59-23.39 134.63-23.39 134.63-28.81 141.59-28.81 141.59-37.77 148.82-37.77 148.82-28.81 155.78-28.81 155.78-23.39 148.82-23.39 148.82 0 141.59 0ZM160.83-14.5L160.83-14.5Q160.83-17.43 162.02-20.1 163.22-22.78 165.47-24.83 167.71-26.88 170.97-28.1 174.23-29.32 178.38-29.32L178.38-29.32Q182.51-29.32 185.82-28.09 189.12-26.86 191.43-24.71 193.74-22.56 194.97-19.65 196.2-16.75 196.2-13.43L196.2-13.43Q196.2-13.01 196.19-12.54 196.18-12.06 196.13-11.67L196.13-11.67 168.88-11.67Q169.35-10.38 170.39-9.3 171.42-8.23 172.99-7.45 174.55-6.67 176.6-6.24 178.65-5.81 181.14-5.81L181.14-5.81Q183.63-5.81 186.1-6.34 188.56-6.86 190.81-7.67L190.81-7.67 193.25-2.15Q191.83-1.49 190.38-0.99 188.93-0.49 187.35-0.16 185.78 0.17 184.06 0.34 182.34 0.51 180.43 0.51L180.43 0.51Q175.57 0.51 171.91-0.66 168.25-1.83 165.78-3.86 163.32-5.88 162.07-8.62 160.83-11.35 160.83-14.5ZM168.88-17.31L188.54-17.31Q188.15-18.51 187.33-19.54 186.51-20.58 185.29-21.35 184.07-22.12 182.46-22.56 180.85-23 178.92-23L178.92-23Q176.87-23 175.18-22.53 173.5-22.07 172.23-21.29 170.96-20.51 170.12-19.48 169.27-18.46 168.88-17.31L168.88-17.31ZM203.96 0L203.96-28.81 211.19-28.81 211.19-24.66Q213.58-26.44 216.24-27.73 218.91-29.03 221.54-29.71L221.54-29.71 223.67-23.1Q219.49-22.68 216.33-21.23 213.17-19.78 211.19-17.14L211.19-17.14 211.19 0 203.96 0Z" opacity="1" transform="matrix(1,0,0,1,0,0)" fill="#ffffff" class="undefined-text-0" data-fill-palette-color="primary" id="text-0"></path></svg></g></svg></g></svg></g></svg></g></svg></g></svg></g></svg></g></svg></g><defs></defs></svg><rect width="395.52" height="247.2" fill="none" stroke="none" visibility="hidden"></rect></g></svg></g></svg>